# Blender v2.83.5 OBJ File: ''
# www.blender.org
mtllib building3_floor.mtl
o House_1
v 19.513050 -18.005350 -6.724119
v 19.513050 -16.123783 -6.724119
v 19.513048 -16.123783 -25.839695
v 19.513048 -18.005350 -25.839697
v 23.532642 -16.123783 -25.839695
v 23.532642 -18.005350 -25.839697
v 23.532642 -16.123783 -6.724119
v 23.532642 -18.005350 -6.724119
v 12.991308 -13.903368 -9.536186
v 12.414642 -13.903367 -23.027624
v 22.994514 -13.903367 -23.027624
v 22.063675 -12.942153 -21.914583
v 22.063675 -12.942155 -10.649231
v 22.341726 -13.903368 -9.536187
v 23.571182 -12.942153 -21.914583
v 22.341726 -12.942155 -10.649231
v 18.952759 -16.280458 -8.542673
v 18.952759 -13.749751 -8.542672
v 18.952759 -13.749748 -24.021141
v 18.952759 -16.280457 -24.021141
v 23.651207 -13.749748 -24.021141
v 23.651207 -16.280457 -24.021141
v 23.651207 -13.749751 -8.542673
v 23.651207 -16.280458 -8.542674
v -25.470911 -11.081056 -26.157005
v -25.470911 -11.081055 -29.612448
v -25.470911 -17.989597 -29.612450
v -25.470911 -17.989599 -26.157007
v 20.813745 -11.081055 -29.612450
v 23.867279 -11.081055 -29.612450
v 23.867279 -17.989597 -29.612452
v 20.813745 -17.989597 -29.612452
v 23.867279 -11.081056 -26.157007
v 23.867281 -11.081059 9.206762
v 23.867281 -17.989603 9.206761
v 23.867279 -17.989599 -26.157009
v -18.985382 -17.369020 -22.954227
v 16.930391 -17.369020 -22.954227
v 16.930393 -17.369024 6.056247
v -18.985380 -17.369024 6.056248
v -21.038971 -10.731895 6.056249
v -21.038971 -10.731895 -1.196370
v -21.038971 -11.701637 6.056249
v -21.038971 -10.731894 -8.448989
v -21.038971 -10.731893 -15.701608
v -21.038973 -11.701634 -22.954227
v -21.038973 -10.731893 -22.954227
v -18.985382 -10.731893 -25.788879
v -10.006438 -10.731893 -25.788879
v -18.985382 -11.701634 -25.788879
v -1.027495 -10.731893 -25.788881
v 7.951448 -10.731893 -25.788881
v 16.930391 -11.701634 -25.788881
v 16.930391 -10.731893 -25.788881
v 19.435345 -10.731895 6.056247
v 19.435345 -10.731896 9.129550
v 19.435345 -11.701638 9.129550
v 19.435345 -11.701637 6.056247
v 20.813747 -17.989603 12.953118
v 23.867281 -17.989603 12.953117
v 23.867281 -11.081059 12.953118
v 20.813747 -11.081059 12.953118
v -18.985380 -10.731896 9.129552
v -1.027494 -10.731896 9.129551
v 16.930393 -10.731896 9.129550
v -21.038971 -10.731896 9.129552
v -21.038973 -10.731893 -25.788879
v 16.930393 -11.701638 9.129550
v -25.470909 -17.989603 9.206764
v -25.470909 -17.989603 12.953120
v -25.470909 -11.081059 12.953120
v -25.470909 -11.081059 9.206764
v 19.435345 -17.369024 6.056247
v 19.435345 -17.369024 9.129549
v 16.930393 -17.369024 9.129550
v -21.038971 -11.701638 9.129552
v 19.435343 -10.731893 -22.954229
v 19.435345 -10.731893 -15.701610
v 19.435343 -11.701634 -22.954229
v 19.435345 -10.731894 -8.448991
v 19.435345 -10.731895 -1.196371
v 19.435343 -10.731893 -25.788881
v -18.985382 -17.369020 -25.788879
v 16.930391 -17.369020 -25.788881
v -21.038973 -11.701634 -25.788879
v 19.435343 -11.701634 -25.788881
v -22.967583 -17.989597 -29.612450
v -22.967583 -11.081055 -29.612448
v -21.038971 -17.369024 6.056248
v -21.038973 -17.369020 -22.954227
v -22.967581 -11.081059 12.953120
v -22.967581 -17.989603 12.953120
v -18.985380 -11.701638 9.129552
v -18.985380 -17.369024 9.129551
v -21.038971 -17.369024 9.129551
v -21.038973 -17.369020 -25.788879
v 19.435343 -17.369020 -22.954227
v 19.435343 -17.369020 -25.788881
v 19.435343 -10.731880 -26.451637
v -10.006438 -10.731880 -26.451635
v 7.951448 -10.731880 -26.451637
v 16.930391 -11.701622 -26.451637
v -21.038973 -10.731880 -26.451635
v -21.038973 -11.701622 -26.451635
v -18.985382 -11.701622 -26.451635
v 19.435345 -11.701633 9.629263
v 16.930393 -11.701633 9.629263
v -21.038971 -11.701633 9.629265
v -18.985380 -11.701633 9.629265
vt 0.797330 -0.576002
vt 0.797330 -0.559998
vt 0.813334 -0.559998
vt 0.813334 -0.576002
vt 0.830041 -0.546552
vt 0.843378 -0.546552
vt 0.843378 -0.546552
vt 0.797330 -0.576002
vt 0.797330 -0.559998
vt 0.813334 -0.559998
vt 0.813334 -0.576002
vt 0.797330 -0.576002
vt 0.797330 -0.559998
vt 0.813334 -0.559998
vt 0.813334 -0.576002
vt 0.109613 -0.114862
vt 0.110167 -0.114862
vt 0.109613 -0.114904
vt 0.110722 -0.114862
vt 0.111277 -0.114862
vt 0.111831 -0.114904
vt 0.111831 -0.114862
vt 0.109485 -0.114862
vt 0.110084 -0.114862
vt 0.109485 -0.114904
vt 0.110684 -0.114862
vt 0.111283 -0.114862
vt 0.111883 -0.114904
vt 0.111883 -0.114862
vt 0.109594 -0.114862
vt 0.110149 -0.114862
vt 0.109594 -0.114904
vt 0.110704 -0.114862
vt 0.111258 -0.114862
vt 0.111813 -0.114904
vt 0.111813 -0.114862
vt 0.109378 -0.114862
vt 0.109378 -0.114904
vt 0.109378 -0.114904
vt 0.109378 -0.114862
vt 0.112048 -0.114904
vt 0.112048 -0.114862
vt 0.112048 -0.114862
vt 0.813379 -0.578902
vt 0.813272 -0.578902
vt 0.813272 -0.578902
vt 0.813379 -0.578902
vt 0.810874 -0.578902
vt 0.810874 -0.578902
vt 0.810874 -0.578902
vt 0.810708 -0.578902
vt 0.111831 -0.115148
vt 0.112048 -0.115148
vt 0.111831 -0.115148
vt 0.813379 -0.578902
vt 0.813162 -0.578902
vt 0.813162 -0.578902
vt 0.111883 -0.115148
vt 0.112048 -0.115148
vt 0.111883 -0.115148
vt 0.813379 -0.578902
vt 0.813214 -0.578902
vt 0.813214 -0.578902
vt 0.810874 -0.578902
vt 0.810708 -0.578902
vt 0.109378 -0.115148
vt 0.109543 -0.115148
vt 0.109543 -0.115148
vt 0.810943 -0.578902
vt 0.810708 -0.578902
vt 0.810943 -0.578902
vt 0.109378 -0.115148
vt 0.109613 -0.115148
vt 0.109613 -0.115148
vt 0.111813 -0.115148
vt 0.112048 -0.115148
vt 0.111813 -0.115148
vt 0.813379 -0.578902
vt 0.813144 -0.578902
vt 0.813144 -0.578902
vt 0.810925 -0.578902
vt 0.810708 -0.578902
vt 0.810925 -0.578902
vt 0.109378 -0.115148
vt 0.109594 -0.115148
vt 0.109594 -0.115148
vt 0.810815 -0.578902
vt 0.810708 -0.578902
vt 0.810815 -0.578902
vt 0.109378 -0.115148
vt 0.109485 -0.115148
vt 0.109485 -0.115148
vt 0.111941 -0.115148
vt 0.112048 -0.115148
vt 0.111941 -0.115148
vt 0.813272 -0.578902
vt 0.109543 -0.114904
vt 0.109378 -0.115148
vt 0.109378 -0.114904
vt 0.813334 -0.576002
vt 0.797330 -0.576002
vt 0.797330 -0.559998
vt 0.813334 -0.559998
vt 0.810815 -0.579147
vt 0.810708 -0.579147
vt 0.810708 -0.578902
vt 0.813334 -0.576002
vt 0.797330 -0.576002
vt 0.797330 -0.559998
vt 0.810943 -0.579147
vt 0.810708 -0.579147
vt 0.810708 -0.578902
vt 0.830041 -0.546552
vt 0.830041 -0.546552
vt 0.843378 -0.546552
vt 0.813334 -0.576002
vt 0.797330 -0.576002
vt 0.813334 -0.559998
vt 0.810925 -0.579147
vt 0.810708 -0.579147
vt 0.810708 -0.578902
vt 0.813162 -0.579147
vt 0.813334 -0.576002
vt 0.797330 -0.559998
vt 0.813334 -0.559998
vt 0.813214 -0.579147
vt 0.813379 -0.578902
vt 0.813379 -0.579147
vt 0.813144 -0.579147
vt 0.109613 -0.112585
vt 0.111831 -0.112585
vt 0.111831 -0.114983
vt 0.109613 -0.114983
vt 0.813379 -0.578902
vt 0.813379 -0.579147
vt 0.109613 -0.115148
vt 0.109378 -0.114983
vt 0.112048 -0.114983
vt 0.111831 -0.115148
vt 0.109378 -0.112585
vt 0.843378 -0.533215
vt 0.843378 -0.546552
vt 0.830041 -0.546552
vt 0.830041 -0.533215
vt 0.813379 -0.578902
vt 0.813379 -0.579147
vt 0.813334 -0.559998
vt 0.797330 -0.559998
vt 0.813334 -0.576002
vt 0.797330 -0.576002
vt 0.797330 -0.559998
vt 0.813334 -0.559998
vt 0.112048 -0.112585
vt 0.112048 -0.114862
vt 0.112048 -0.114904
vt 0.109378 -0.114904
vt 0.109378 -0.114862
vt 0.797330 -0.576002
vt 0.797330 -0.559998
vt 0.813334 -0.559998
vt 0.109613 -0.112478
vt 0.111831 -0.112478
vt 0.109378 -0.114904
vt 0.109378 -0.114862
vt 0.813272 -0.579147
vt 0.813379 -0.578902
vt 0.813379 -0.579147
vt 0.109378 -0.112478
vt 0.112048 -0.112478
vt 0.813334 -0.559998
vt 0.813334 -0.576002
vt 0.797330 -0.576002
vt 0.797330 -0.559998
vt 0.112048 -0.114862
vt 0.112048 -0.114904
vt 0.813334 -0.576002
vt 0.797330 -0.576002
vt 0.810874 -0.579147
vt 0.109378 -0.115148
vt 0.109378 -0.115148
vt 0.109378 -0.115148
vt 0.000000 0.000000
vt 0.000000 0.000000
vt 0.000000 0.000000
vt 0.000000 0.000000
vt 0.000000 0.000000
vt 0.000000 0.000000
vt 0.813272 -0.578902
vt 0.112048 -0.114904
vt 0.111941 -0.114904
vt 0.000000 0.000000
vt 0.109543 -0.114904
vt 0.112048 -0.114904
vt 0.109378 -0.114904
vt 0.813379 -0.578902
vt 0.000000 0.000000
vt 0.000000 0.000000
vn 1.0000 0.0000 0.0000
vn 0.9973 0.0559 0.0483
vn 0.0000 0.0000 -1.0000
vn -1.0000 0.0000 0.0000
vn 0.0000 1.0000 0.0000
vn 0.0000 -1.0000 -0.0000
vn 0.1387 -0.9903 0.0000
vn 0.1387 0.9903 0.0000
vn 0.0000 -0.9871 0.1602
vn 0.0000 0.9871 0.1602
vn 0.0000 0.9871 -0.1602
vn 0.0000 -0.9871 -0.1602
vn -0.1387 -0.9903 0.0000
vn -0.1387 0.9903 0.0000
vn 0.0000 -0.0000 1.0000
vn 0.8060 -0.5854 0.0880
vn -0.0818 -0.9944 -0.0666
vn 0.0857 0.9944 0.0621
vn -0.0790 0.9944 0.0698
vn 0.0883 -0.9943 -0.0590
vn -0.0790 -0.9944 0.0698
vn -0.0818 0.9944 -0.0666
vn 0.0857 -0.9944 0.0621
vn 0.0883 0.9943 -0.0590
vn 0.0000 0.9996 0.0269
vn 0.3610 -0.9326 0.0000
usemtl World_ap
s off
f 6/1/1 5/2/1 7/3/1 8/4/1
f 11/5/2 16/6/2 14/7/2
f 20/8/3 19/9/3 21/10/3 22/11/3
f 22/12/1 21/13/1 23/14/1 24/15/1
f 41/16/4 42/17/4 43/18/4
f 42/17/4 44/19/4 43/18/4
f 44/19/4 45/20/4 46/21/4
f 45/20/4 47/22/4 46/21/4
f 44/19/4 46/21/4 43/18/4
f 48/23/3 49/24/3 50/25/3
f 49/24/3 51/26/3 50/25/3
f 51/26/3 52/27/3 53/28/3
f 52/27/3 54/29/3 53/28/3
f 51/26/3 53/28/3 50/25/3
f 77/30/1 78/31/1 79/32/1
f 78/31/1 80/33/1 79/32/1
f 80/33/1 81/34/1 58/35/1
f 81/34/1 55/36/1 58/35/1
f 80/33/1 58/35/1 79/32/1
f 66/37/1 76/38/1 104/39/1 103/40/1
f 57/41/4 56/42/4 99/43/4
f 76/44/5 93/45/5 105/46/5 104/47/5
f 93/45/5 68/48/5 102/49/5 105/46/5
f 107/50/6 102/49/6 106/51/6
f 28/52/7 96/53/7 90/54/7
f 85/55/8 25/56/8 46/57/8
f 32/58/9 98/59/9 84/60/9
f 86/61/10 29/62/10 53/63/10
f 62/64/11 57/65/11 68/48/11
f 74/66/12 59/67/12 75/68/12
f 72/69/8 76/70/8 43/71/8
f 95/72/7 69/73/7 89/74/7
f 35/75/13 74/76/13 73/77/13
f 57/78/14 34/79/14 58/80/14
f 33/81/14 86/82/14 79/83/14
f 98/84/13 36/85/13 97/86/13
f 88/87/10 85/88/10 50/89/10
f 96/90/9 87/91/9 83/92/9
f 92/93/12 95/94/12 94/95/12
f 76/44/11 91/96/11 93/45/11
f 29/62/10 50/89/10 53/63/10
f 83/92/9 32/58/9 84/60/9
f 59/67/12 94/95/12 75/68/12
f 93/45/11 62/64/11 68/48/11
f 62/97/15 59/67/15 60/98/15 61/99/15
f 1/100/15 8/101/15 7/102/15 2/103/15
f 88/87/3 87/104/3 27/105/3 26/106/3
f 19/107/5 18/108/5 23/109/5 21/10/5
f 72/69/4 69/110/4 70/111/4 71/112/4
f 16/6/5 15/113/5 12/114/5 13/115/5
f 11/5/16 15/113/16 16/6/16
f 35/75/17 60/98/17 59/67/17 74/76/17
f 17/116/15 24/117/15 23/109/15 18/118/15
f 33/81/1 36/119/1 31/120/1 30/121/1
f 72/69/4 25/56/4 28/122/4 69/110/4
f 6/123/6 8/101/6 1/124/6 4/125/6
f 32/126/3 29/62/3 30/127/3 31/128/3
f 36/119/1 33/81/1 34/79/1 35/129/1
f 40/130/6 37/131/6 38/132/6 39/133/6
f 58/35/1 55/36/1 56/42/1 57/41/1
f 35/129/1 34/79/1 61/134/1 60/135/1
f 39/133/6 73/136/6 74/66/6 75/137/6
f 38/132/6 84/138/6 98/59/6 97/139/6
f 39/133/6 38/132/6 97/139/6 73/136/6
f 39/133/6 75/137/6 94/140/6 40/130/6
f 10/141/6 11/142/6 14/143/6 9/144/6
f 28/122/4 25/56/4 26/145/4 27/146/4
f 20/147/6 22/11/6 24/117/6 17/148/6
f 41/16/4 43/18/4 76/38/4 66/37/4
f 20/149/4 17/150/4 18/151/4 19/152/4
f 37/131/6 83/153/6 84/138/6 38/132/6
f 46/21/4 47/22/4 67/154/4 85/155/4
f 77/30/1 79/32/1 86/156/1 82/157/1
f 6/123/3 4/158/3 3/159/3 5/160/3
f 37/131/6 40/130/6 89/161/6 90/162/6
f 48/23/3 50/25/3 85/163/3 67/164/3
f 92/165/15 91/96/15 71/166/15 70/167/15
f 40/130/6 94/140/6 95/168/6 89/161/6
f 83/153/6 37/131/6 90/162/6 96/169/6
f 3/170/4 4/171/4 1/172/4 2/173/4
f 29/62/3 32/126/3 87/104/3 88/87/3
f 53/28/3 54/29/3 82/174/3 86/175/3
f 5/160/5 3/176/5 2/177/5 7/102/5
f 59/178/15 62/64/15 91/96/15 92/165/15
f 88/87/18 26/145/18 25/56/18 85/88/18
f 79/83/14 58/80/14 34/79/14 33/81/14
f 33/81/19 30/127/19 29/62/19 86/82/19
f 92/93/20 70/179/20 69/73/20 95/94/20
f 90/54/7 89/74/7 69/73/7 28/52/7
f 72/69/8 43/71/8 46/57/8 25/56/8
f 31/180/21 36/85/21 98/59/21 32/58/21
f 61/134/22 34/79/22 57/65/22 62/64/22
f 27/181/23 87/91/23 96/53/23 28/52/23
f 71/166/24 91/96/24 76/70/24 72/69/24
f 35/75/13 73/77/13 97/86/13 36/85/13
f 29/62/10 88/87/10 50/89/10
f 83/92/9 87/91/9 32/58/9
f 59/67/12 92/93/12 94/95/12
f 93/45/11 91/96/11 62/64/11
f 56/182/6 65/183/6 99/184/6
f 100/185/6 63/186/6 103/187/6
f 105/46/6 102/49/6 107/50/6 109/188/6
f 103/40/25 108/189/25 109/190/25 100/185/25
f 99/184/25 101/191/25 107/192/25 106/193/25
f 57/41/26 99/43/26 106/51/26 102/49/26
f 103/40/4 104/39/4 108/194/4
f 109/190/25 107/192/25 101/191/25 100/185/25
f 104/47/6 105/46/6 109/188/6 108/195/6
f 101/191/6 64/196/6 100/185/6
f 99/184/6 65/183/6 101/191/6
f 63/186/6 100/185/6 64/196/6
f 64/196/6 101/191/6 65/183/6
f 68/48/5 57/65/5 102/49/5
f 63/186/6 66/197/6 103/187/6
